<svg width="22" height="22" viewBox="0 0 22 22" fill="none" xmlns="http://www.w3.org/2000/svg">
<g clip-path="url(#clip0_2046_2612)">
<path d="M10.2783 11.0143H20.2783" stroke="#5E26E7" stroke-width="1.5" stroke-linecap="round" stroke-linejoin="round"/>
<path d="M17.4219 8.15714L20.2791 11.0143L17.4219 13.8714" stroke="#5E26E7" stroke-width="1.5" stroke-linecap="round" stroke-linejoin="round"/>
<path d="M17.707 17.4286C16.4242 18.7656 14.7708 19.6884 12.9593 20.078C11.1478 20.4677 9.2611 20.3065 7.54197 19.6152C5.82284 18.9239 4.34984 17.7341 3.31244 16.1988C2.27505 14.6635 1.7207 12.8529 1.7207 11C1.7207 9.14706 2.27505 7.3365 3.31244 5.8012C4.34984 4.2659 5.82284 3.07607 7.54197 2.38476C9.2611 1.69344 11.1478 1.53226 12.9593 1.92194C14.7708 2.31162 16.4242 3.23434 17.707 4.57142" stroke="#5E26E7" stroke-width="1.5" stroke-linecap="round" stroke-linejoin="round"/>
</g>
<defs>
<clipPath id="clip0_2046_2612">
<rect width="22" height="22" fill="white"/>
</clipPath>
</defs>
</svg>
