<svg width="100" height="100" viewBox="0 0 100 100" fill="none" xmlns="http://www.w3.org/2000/svg">
<g clip-path="url(#clip0_408_12)">
<path d="M49.2873 48.1707C55.905 48.1707 61.6355 45.7971 66.3177 41.1142C70.9998 36.432 73.3734 30.7031 73.3734 24.0846C73.3734 17.4683 70.9998 11.7386 66.3169 7.05493C61.634 2.37351 55.9043 0 49.2873 0C42.6687 0 36.9398 2.37351 32.2576 7.05569C27.5754 11.7379 25.2012 17.4676 25.2012 24.0846C25.2012 30.7031 27.5754 36.4328 32.2584 41.115C36.9413 45.7964 42.671 48.1707 49.2873 48.1707Z" fill="white"/>
<path d="M91.4314 76.8951C91.2964 74.9466 91.0233 72.821 90.6212 70.5764C90.2153 68.3151 89.6927 66.1773 89.0671 64.2235C88.4209 62.204 87.542 60.2096 86.4555 58.2985C85.3279 56.3148 84.0034 54.5875 82.5172 53.1662C80.9631 51.6792 79.0604 50.4837 76.86 49.6116C74.6674 48.7442 72.2374 48.3047 69.6381 48.3047C68.6172 48.3047 67.63 48.7236 65.7234 49.9649C64.55 50.7301 63.1775 51.6151 61.6455 52.594C60.3355 53.4286 58.5609 54.2106 56.369 54.9186C54.2305 55.6106 52.0592 55.9616 49.9161 55.9616C47.773 55.9616 45.6024 55.6106 43.4616 54.9186C41.272 54.2114 39.4974 53.4294 38.1889 52.5947C36.6714 51.625 35.2982 50.74 34.1072 49.9641C32.2029 48.7228 31.2149 48.304 30.1941 48.304C27.594 48.304 25.1648 48.7442 22.9729 49.6124C20.7741 50.4829 18.8705 51.6784 17.3149 53.1669C15.8295 54.5891 14.5042 56.3156 13.3781 58.2985C12.2925 60.2096 11.4136 62.2032 10.7666 64.2242C10.1418 66.1781 9.61914 68.3151 9.21326 70.5764C8.81119 72.818 8.53806 74.9443 8.40302 76.8974C8.27026 78.8109 8.20312 80.7968 8.20312 82.8026C8.20312 88.0226 9.86252 92.2485 13.1348 95.3651C16.3666 98.4405 20.6429 100.001 25.843 100.001H73.9937C79.1939 100.001 83.4686 98.4413 86.7012 95.3651C89.9742 92.2508 91.6336 88.0241 91.6336 82.8018C91.6328 80.7869 91.5649 78.7994 91.4314 76.8951Z" fill="white"/>
</g>
<defs>
<clipPath id="clip0_408_12">
<rect width="100" height="100" fill="white"/>
</clipPath>
</defs>
</svg>
